<svg width="139" height="139" viewBox="0 0 139 139" fill="none" xmlns="http://www.w3.org/2000/svg">
<g style="mix-blend-mode:plus-darker">
<path d="M129.012 34.7558C148.065 67.7579 136.758 109.958 103.756 129.012C70.7536 148.065 28.5538 136.758 9.5 103.756C-9.55382 70.7536 1.75356 28.5538 34.7558 9.5C67.758 -9.55383 109.958 1.75356 129.012 34.7558ZM17.5021 99.1358C22.3814 107.587 29.0134 114.396 36.6738 119.368C39.8211 121.41 43.1421 123.143 46.5865 124.552C47.5692 124.954 48.5618 125.33 49.5634 125.679C52.7058 126.774 55.9355 127.607 59.2166 128.168C60.3954 128.37 61.5808 128.536 62.7712 128.667C65.5035 128.967 68.262 129.081 71.0264 129.001C80.605 128.726 90.2549 126.137 99.1358 121.009C107.587 116.13 114.396 109.498 119.368 101.838C121.128 99.1252 122.658 96.2838 123.95 93.3455C124.388 92.3477 124.799 91.3388 125.182 90.32C126.303 87.3395 127.185 84.2742 127.82 81.1557C128.012 80.2108 128.182 79.2609 128.329 78.307C128.901 74.5882 129.124 70.8085 128.986 67.0197C128.641 57.5941 126.054 48.1128 121.009 39.3757C114.493 28.0897 104.852 19.7331 93.8096 14.7682C92.8593 14.3408 91.8985 13.9386 90.9285 13.5619C90.524 13.4048 90.1179 13.2521 89.7102 13.1038C88.5892 12.6961 87.4566 12.322 86.3141 11.9819C85.8069 11.831 85.2978 11.6867 84.7868 11.5492C83.6853 11.2527 82.5753 10.9876 81.4583 10.7542C67.5787 7.85418 52.6218 9.85443 39.3757 17.5021C26.121 25.1547 16.9069 37.1183 12.482 50.5992C12.129 51.6746 11.8065 52.7596 11.5149 53.8528C11.414 54.2311 11.3168 54.6103 11.2232 54.9905C10.8844 56.3683 10.5942 57.7582 10.3536 59.1575C10.2788 59.5923 10.2088 60.0279 10.1436 60.4644C9.97644 61.5832 9.84083 62.7074 9.73711 63.8356C8.64553 75.709 11.0869 88.0243 17.5021 99.1358Z" fill="#CDCDCD"/>
<path d="M51.4415 64.6824C49.3489 64.2642 47.2505 63.8996 45.1499 63.5898C39.3441 79.8684 36.8122 97.9906 36.6738 119.368C39.8211 121.41 43.1421 123.143 46.5865 124.552C44.4251 100.128 45.6089 81.7851 51.4415 64.6824Z" fill="#CDCDCD"/>
<path d="M54.839 65.4096C48.8978 82.9258 47.5482 101.292 49.5634 125.679C52.7058 126.774 55.9355 127.607 59.2166 128.168C55.5409 102.761 55.5684 83.8674 60.0591 66.716C58.3256 66.2438 56.585 65.8081 54.839 65.4096Z" fill="#CDCDCD"/>
<path d="M63.2823 67.6384C59.0893 84.8829 59.1769 103.625 62.7712 128.667C65.5035 128.967 68.262 129.081 71.0264 129.001C66.6643 104.92 65.6438 86.6295 68.9131 69.4667C67.0481 68.8146 65.1703 68.2049 63.2823 67.6384Z" fill="#CDCDCD"/>
<path fill-rule="evenodd" clip-rule="evenodd" d="M45.1499 63.5898C33.2112 61.8292 21.1993 61.8394 9.73711 63.8356C9.84083 62.7074 9.97644 61.5832 10.1436 60.4644C21.8294 57.5508 34.318 56.9611 47.0857 58.5273C48.998 58.7619 50.9166 59.0448 52.8398 59.3756C53.9613 59.5685 55.0844 59.7776 56.2086 60.0029C57.9245 60.3468 59.6432 60.7282 61.3634 61.1469C62.3992 61.399 63.4357 61.6647 64.4724 61.9437C66.3822 62.4577 68.2929 63.0172 70.2029 63.6217C69.716 65.56 69.2866 67.506 68.9131 69.4667C67.0481 68.8146 65.1703 68.2049 63.2823 67.6384C62.211 67.3169 61.1364 67.0094 60.0591 66.716C58.3256 66.2438 56.585 65.8081 54.839 65.4096C53.7086 65.1516 52.5759 64.9091 51.4415 64.6824C49.3489 64.2642 47.2505 63.8996 45.1499 63.5898Z" fill="#CDCDCD"/>
<path d="M119.368 101.838C121.128 99.1252 122.658 96.2838 123.95 93.3455C107.131 79.5491 88.7024 69.4766 70.2029 63.6217C69.716 65.56 69.2866 67.506 68.9131 69.4667C88.009 76.1432 105.763 87.2572 119.368 101.838Z" fill="#CDCDCD"/>
<path d="M70.7669 60.5862C91.1948 67.0373 109.927 78.4371 125.182 90.32C126.303 87.3395 127.185 84.2742 127.82 81.1557C111.542 69.1489 92.9257 59.4437 72.2229 54.5617C71.6656 56.5519 71.1808 58.5581 70.7669 60.5862Z" fill="#CDCDCD"/>
<path d="M73.027 51.8606C93.0998 56.7486 111.726 66.5132 128.329 78.307C128.901 74.5882 129.124 70.8085 128.986 67.0197C109.962 56.9715 92.5257 49.4073 75.2339 45.675C74.4162 47.727 73.6812 49.7865 73.027 51.8606Z" fill="#CDCDCD"/>
<path d="M70.37 44.7269C69.4738 46.7105 68.6497 48.708 67.8958 50.7253C69.6163 51.0676 71.3268 51.4466 73.027 51.8606C73.6812 49.7865 74.4162 47.727 75.2339 45.675C73.6117 45.3249 71.9908 45.0085 70.37 44.7269Z" fill="#CDCDCD"/>
<path d="M70.7669 60.5862C71.1808 58.5581 71.6656 56.5519 72.2229 54.5617C70.4739 54.1493 68.7101 53.7713 66.9314 53.4292C66.3101 55.2579 65.7447 57.1048 65.2338 58.9739C67.0909 59.4694 68.9357 60.0079 70.7669 60.5862Z" fill="#CDCDCD"/>
<path d="M62.1743 58.1996C62.6991 56.391 63.2647 54.6183 63.8718 52.8789C62.2138 52.6014 60.5434 52.3552 58.8605 52.1417C58.2208 53.7819 57.6321 55.4342 57.0929 57.1015C58.7955 57.4296 60.4896 57.7965 62.1743 58.1996Z" fill="#CDCDCD"/>
<path d="M59.9719 49.4237C61.611 49.6358 63.2417 49.8825 64.8639 50.1622C65.6334 48.1461 66.4613 46.1744 67.3487 44.2427C65.7931 44.0145 64.2368 43.819 62.6789 43.6571C61.7018 45.5677 60.8002 47.4883 59.9719 49.4237Z" fill="#CDCDCD"/>
<path d="M56.5913 49.0367C57.4266 47.1165 58.3306 45.2258 59.3055 43.36C57.7878 43.2504 56.2679 43.1733 54.7447 43.1297C53.6652 44.9523 52.6402 46.7931 51.6681 48.6548C53.3169 48.7464 54.9581 48.8742 56.5913 49.0367Z" fill="#CDCDCD"/>
<path d="M55.462 51.7567C53.7555 51.5866 52.0366 51.4502 50.3055 51.3487C49.5913 52.8072 48.9084 54.279 48.2561 55.7652C50.0913 55.9654 51.9189 56.2136 53.7375 56.5072C54.2693 54.9016 54.8438 53.319 55.462 51.7567Z" fill="#CDCDCD"/>
<path d="M11.2232 54.9905C10.8844 56.3683 10.5942 57.7582 10.3536 59.1575C23.1114 55.2555 35.8608 54.4134 48.2561 55.7652C48.9084 54.279 49.5913 52.8072 50.3055 51.3487C37.8944 50.6208 24.8521 51.6859 11.2232 54.9905Z" fill="#CDCDCD"/>
<path d="M12.482 50.5992C12.129 51.6746 11.8065 52.7596 11.5149 53.8528C25.2838 49.4449 38.7132 47.9349 51.6681 48.6548C52.6402 46.7931 53.6652 44.9523 54.7447 43.1297C41.1454 42.7401 27.2873 45.0155 12.482 50.5992Z" fill="#CDCDCD"/>
<path d="M84.7868 11.5492C83.6853 11.2527 82.5753 10.9876 81.4583 10.7542C70.2087 21.2522 61.4309 31.8409 54.7447 43.1297C56.2679 43.1733 57.7878 43.2504 59.3055 43.36C65.132 32.2087 73.487 21.9429 84.7868 11.5492Z" fill="#CDCDCD"/>
<path d="M89.7102 13.1038C88.5892 12.6961 87.4566 12.322 86.3141 11.9819C75.8337 22.7847 68.0946 33.0678 62.6789 43.6571C64.2368 43.819 65.7931 44.0145 67.3487 44.2427C72.6232 32.7618 80.0002 22.6944 89.7102 13.1038Z" fill="#CDCDCD"/>
<path d="M93.8096 14.7682C92.8593 14.3408 91.8985 13.9386 90.9285 13.5619C81.8663 24.1384 75.1093 34.2378 70.37 44.7269C71.9908 45.0085 73.6117 45.3249 75.2339 45.675C79.2994 35.4726 85.41 25.4567 93.8096 14.7682Z" fill="#CDCDCD"/>
<path d="M59.9719 49.4237C60.8002 47.4883 61.7018 45.5677 62.6789 43.6571C61.5554 43.5404 60.4311 43.4413 59.3055 43.36C58.3306 45.2258 57.4266 47.1165 56.5913 49.0367C57.722 49.1492 58.8489 49.2783 59.9719 49.4237Z" fill="#CDCDCD"/>
<path d="M67.8958 50.7253C68.6497 48.708 69.4738 46.7105 70.37 44.7269C69.363 44.552 68.356 44.3905 67.3487 44.2427C66.4613 46.1744 65.6334 48.1461 64.8639 50.1622C65.8779 50.3371 66.8886 50.5249 67.8958 50.7253Z" fill="#CDCDCD"/>
<path d="M72.2229 54.5617C72.4759 53.6582 72.7439 52.7581 73.027 51.8606C71.3268 51.4466 69.6163 51.0676 67.8958 50.7253C67.5605 51.6225 67.2391 52.5236 66.9314 53.4292C68.7101 53.7713 70.4739 54.1493 72.2229 54.5617Z" fill="#CDCDCD"/>
<path d="M64.4724 61.9437C66.3822 62.4577 68.2929 63.0172 70.2029 63.6217C70.3736 62.604 70.5615 61.5924 70.7669 60.5862C68.9357 60.0079 67.0909 59.4694 65.2338 58.9739C64.9649 59.9574 64.7112 60.9472 64.4724 61.9437Z" fill="#CDCDCD"/>
<path d="M62.1743 58.1996C60.4896 57.7965 58.7955 57.4296 57.0929 57.1015C56.7818 58.0634 56.4871 59.0304 56.2086 60.0029C57.9245 60.3468 59.6432 60.7282 61.3634 61.1469C61.622 60.1538 61.8922 59.1715 62.1743 58.1996Z" fill="#CDCDCD"/>
<path d="M58.8605 52.1417C60.5434 52.3552 62.2138 52.6014 63.8718 52.8789C64.191 51.9643 64.5217 51.0589 64.8639 50.1622C63.2417 49.8825 61.611 49.6358 59.9719 49.4237C59.5856 50.3263 59.2152 51.2321 58.8605 52.1417Z" fill="#CDCDCD"/>
<path d="M56.5913 49.0367C54.9581 48.8742 53.3169 48.7464 51.6681 48.6548C51.2018 49.5479 50.7476 50.4457 50.3055 51.3487C52.0366 51.4502 53.7555 51.5866 55.462 51.7567C55.8234 50.8432 56.1998 49.9367 56.5913 49.0367Z" fill="#CDCDCD"/>
<path d="M53.7375 56.5072C51.9189 56.2136 50.0913 55.9654 48.2561 55.7652C47.8544 56.6804 47.4643 57.6009 47.0857 58.5273C48.998 58.7619 50.9166 59.0448 52.8398 59.3756C53.1243 58.4111 53.4234 57.4552 53.7375 56.5072Z" fill="#CDCDCD"/>
<path d="M57.0929 57.1015C57.6321 55.4342 58.2208 53.7819 58.8605 52.1417C57.7332 51.9986 56.6004 51.8701 55.462 51.7567C54.8438 53.319 54.2693 54.9016 53.7375 56.5072C54.8594 56.6882 55.978 56.8866 57.0929 57.1015Z" fill="#CDCDCD"/>
<path d="M65.2338 58.9739C65.7447 57.1048 66.3101 55.2579 66.9314 53.4292C65.9164 53.234 64.8965 53.0504 63.8718 52.8789C63.2647 54.6183 62.6991 56.391 62.1743 58.1996C63.1977 58.4445 64.2176 58.7028 65.2338 58.9739Z" fill="#CDCDCD"/>
</g>
</svg>
